<mxfile host="Electron" modified="2023-06-30T20:32:51.681Z" agent="Mozilla/5.0 (Windows NT 10.0; Win64; x64) AppleWebKit/537.36 (KHTML, like Gecko) draw.io/21.1.2 Chrome/106.0.5249.199 Electron/21.4.3 Safari/537.36" etag="XnLiZPb7G4au5Lqngi8w" version="21.1.2" type="device">
  <diagram id="C5RBs43oDa-KdzZeNtuy" name="Page-1">
    <mxGraphModel dx="1219" dy="731" grid="1" gridSize="10" guides="1" tooltips="1" connect="1" arrows="1" fold="1" page="1" pageScale="1" pageWidth="827" pageHeight="1169" math="0" shadow="0">
      <root>
        <mxCell id="WIyWlLk6GJQsqaUBKTNV-0" />
        <mxCell id="WIyWlLk6GJQsqaUBKTNV-1" parent="WIyWlLk6GJQsqaUBKTNV-0" />
        <mxCell id="61_WRDxVaNvenf14IvHh-116" value="&lt;font face=&quot;calibri&quot; style=&quot;font-size: 11.29px;&quot;&gt;str_gpio_config&lt;/font&gt;" style="shape=parallelogram;perimeter=parallelogramPerimeter;whiteSpace=wrap;html=1;fixedSize=1;fillColor=#e1d5e7;strokeColor=#9673a6;" vertex="1" parent="WIyWlLk6GJQsqaUBKTNV-1">
          <mxGeometry x="120" y="230" width="140" height="50" as="geometry" />
        </mxCell>
        <mxCell id="61_WRDxVaNvenf14IvHh-118" value="&lt;font style=&quot;font-size: 11.29px;&quot; face=&quot;calibri&quot;&gt;start&lt;/font&gt;" style="ellipse;whiteSpace=wrap;html=1;fillColor=#dae8fc;strokeColor=#6c8ebf;" vertex="1" parent="WIyWlLk6GJQsqaUBKTNV-1">
          <mxGeometry x="130" y="160" width="120" height="50" as="geometry" />
        </mxCell>
        <mxCell id="61_WRDxVaNvenf14IvHh-123" value="" style="endArrow=classic;html=1;rounded=0;exitX=0.5;exitY=1;exitDx=0;exitDy=0;entryX=0.5;entryY=0;entryDx=0;entryDy=0;" edge="1" parent="WIyWlLk6GJQsqaUBKTNV-1" source="61_WRDxVaNvenf14IvHh-116" target="61_WRDxVaNvenf14IvHh-126">
          <mxGeometry width="50" height="50" relative="1" as="geometry">
            <mxPoint x="-220" y="530" as="sourcePoint" />
            <mxPoint x="190" y="370" as="targetPoint" />
          </mxGeometry>
        </mxCell>
        <mxCell id="61_WRDxVaNvenf14IvHh-124" value="" style="endArrow=classic;html=1;rounded=0;exitX=0.5;exitY=1;exitDx=0;exitDy=0;entryX=0.5;entryY=0;entryDx=0;entryDy=0;" edge="1" parent="WIyWlLk6GJQsqaUBKTNV-1" source="61_WRDxVaNvenf14IvHh-118" target="61_WRDxVaNvenf14IvHh-116">
          <mxGeometry width="50" height="50" relative="1" as="geometry">
            <mxPoint x="360" y="410" as="sourcePoint" />
            <mxPoint x="410" y="360" as="targetPoint" />
          </mxGeometry>
        </mxCell>
        <mxCell id="61_WRDxVaNvenf14IvHh-125" value="&lt;font face=&quot;calibri&quot;&gt;&lt;b&gt;u8 GPIO_init ( str_gpio_config_t str_gpio_config )&lt;/b&gt;&lt;/font&gt;" style="text;html=1;align=center;verticalAlign=middle;resizable=0;points=[];autosize=1;strokeColor=none;fillColor=none;" vertex="1" parent="WIyWlLk6GJQsqaUBKTNV-1">
          <mxGeometry x="294" y="200" width="270" height="30" as="geometry" />
        </mxCell>
        <mxCell id="61_WRDxVaNvenf14IvHh-128" value="" style="edgeStyle=orthogonalEdgeStyle;rounded=0;orthogonalLoop=1;jettySize=auto;html=1;" edge="1" parent="WIyWlLk6GJQsqaUBKTNV-1" source="61_WRDxVaNvenf14IvHh-126" target="61_WRDxVaNvenf14IvHh-127">
          <mxGeometry relative="1" as="geometry" />
        </mxCell>
        <mxCell id="61_WRDxVaNvenf14IvHh-126" value="&lt;div style=&quot;font-size: 11.29px;&quot;&gt;&lt;font style=&quot;font-size: 11.29px;&quot; face=&quot;calibri&quot;&gt;Set&amp;nbsp;&lt;/font&gt;&lt;/div&gt;&lt;font style=&quot;font-size: 11.29px;&quot; face=&quot;calibri&quot;&gt;&lt;font style=&quot;font-size: 11.29px;&quot;&gt;RCGCGPIO (port)&lt;/font&gt;&lt;br&gt;&lt;/font&gt;" style="rounded=0;whiteSpace=wrap;html=1;fillColor=#d5e8d4;strokeColor=#82b366;" vertex="1" parent="WIyWlLk6GJQsqaUBKTNV-1">
          <mxGeometry x="130" y="310" width="120" height="60" as="geometry" />
        </mxCell>
        <mxCell id="61_WRDxVaNvenf14IvHh-139" value="" style="edgeStyle=orthogonalEdgeStyle;rounded=0;orthogonalLoop=1;jettySize=auto;html=1;" edge="1" parent="WIyWlLk6GJQsqaUBKTNV-1" source="61_WRDxVaNvenf14IvHh-127" target="61_WRDxVaNvenf14IvHh-132">
          <mxGeometry relative="1" as="geometry" />
        </mxCell>
        <mxCell id="61_WRDxVaNvenf14IvHh-127" value="&lt;div style=&quot;font-size: 11.29px;&quot;&gt;&lt;font style=&quot;font-size: 11.29px;&quot; face=&quot;calibri&quot;&gt;Set&amp;nbsp;&lt;/font&gt;&lt;/div&gt;&lt;font style=&quot;font-size: 11.29px;&quot; face=&quot;calibri&quot;&gt;&lt;font style=&quot;font-size: 11.29px;&quot;&gt;GPIOCR (port) bit&lt;/font&gt;&lt;br&gt;&lt;/font&gt;" style="rounded=0;whiteSpace=wrap;html=1;fillColor=#d5e8d4;strokeColor=#82b366;" vertex="1" parent="WIyWlLk6GJQsqaUBKTNV-1">
          <mxGeometry x="130" y="390" width="120" height="60" as="geometry" />
        </mxCell>
        <mxCell id="61_WRDxVaNvenf14IvHh-129" value="&lt;div style=&quot;&quot;&gt;&lt;font style=&quot;font-size: 11.29px;&quot; face=&quot;calibri&quot;&gt;Clear GPIODIR(port) Bit&lt;/font&gt;&lt;/div&gt;" style="rounded=0;whiteSpace=wrap;html=1;fillColor=#d5e8d4;strokeColor=#82b366;" vertex="1" parent="WIyWlLk6GJQsqaUBKTNV-1">
          <mxGeometry x="286" y="490" width="120" height="60" as="geometry" />
        </mxCell>
        <mxCell id="61_WRDxVaNvenf14IvHh-130" value="" style="endArrow=classic;html=1;rounded=0;exitX=0.5;exitY=1;exitDx=0;exitDy=0;" edge="1" parent="WIyWlLk6GJQsqaUBKTNV-1" source="61_WRDxVaNvenf14IvHh-132">
          <mxGeometry width="50" height="50" relative="1" as="geometry">
            <mxPoint x="186" y="570" as="sourcePoint" />
            <mxPoint x="446" y="520" as="targetPoint" />
            <Array as="points">
              <mxPoint x="190" y="580" />
              <mxPoint x="266" y="580" />
              <mxPoint x="370" y="580" />
              <mxPoint x="446" y="580" />
            </Array>
          </mxGeometry>
        </mxCell>
        <mxCell id="61_WRDxVaNvenf14IvHh-131" value="Yes" style="rounded=0;html=1;jettySize=auto;orthogonalLoop=1;fontSize=11;endArrow=block;endFill=0;endSize=8;strokeWidth=1;shadow=0;labelBackgroundColor=none;edgeStyle=orthogonalEdgeStyle;exitX=1;exitY=0.5;exitDx=0;exitDy=0;" edge="1" parent="WIyWlLk6GJQsqaUBKTNV-1" source="61_WRDxVaNvenf14IvHh-132">
          <mxGeometry x="-0.2174" y="10" relative="1" as="geometry">
            <mxPoint as="offset" />
            <mxPoint x="286" y="520" as="targetPoint" />
          </mxGeometry>
        </mxCell>
        <mxCell id="61_WRDxVaNvenf14IvHh-132" value="&lt;font face=&quot;calibri&quot; style=&quot;font-size: 11.29px;&quot;&gt;Dir== IN&lt;/font&gt;" style="rhombus;whiteSpace=wrap;html=1;shadow=0;fontFamily=Helvetica;fontSize=12;align=center;strokeWidth=1;spacing=6;spacingTop=-4;fillColor=#fff2cc;strokeColor=#d6b656;" vertex="1" parent="WIyWlLk6GJQsqaUBKTNV-1">
          <mxGeometry x="140" y="480" width="100" height="80" as="geometry" />
        </mxCell>
        <mxCell id="61_WRDxVaNvenf14IvHh-141" value="" style="edgeStyle=orthogonalEdgeStyle;rounded=0;orthogonalLoop=1;jettySize=auto;html=1;" edge="1" parent="WIyWlLk6GJQsqaUBKTNV-1" source="61_WRDxVaNvenf14IvHh-133" target="61_WRDxVaNvenf14IvHh-140">
          <mxGeometry relative="1" as="geometry" />
        </mxCell>
        <mxCell id="61_WRDxVaNvenf14IvHh-133" value="&lt;div style=&quot;&quot;&gt;&lt;font style=&quot;font-size: 11.29px;&quot; face=&quot;calibri&quot;&gt;Set GPIODIR(port) bit&lt;/font&gt;&lt;br&gt;&lt;/div&gt;" style="rounded=0;whiteSpace=wrap;html=1;fillColor=#d5e8d4;strokeColor=#82b366;" vertex="1" parent="WIyWlLk6GJQsqaUBKTNV-1">
          <mxGeometry x="592" y="490" width="120" height="60" as="geometry" />
        </mxCell>
        <mxCell id="61_WRDxVaNvenf14IvHh-134" value="Yes" style="rounded=0;html=1;jettySize=auto;orthogonalLoop=1;fontSize=11;endArrow=block;endFill=0;endSize=8;strokeWidth=1;shadow=0;labelBackgroundColor=none;edgeStyle=orthogonalEdgeStyle;exitX=1;exitY=0.5;exitDx=0;exitDy=0;" edge="1" parent="WIyWlLk6GJQsqaUBKTNV-1" source="61_WRDxVaNvenf14IvHh-135">
          <mxGeometry y="20" relative="1" as="geometry">
            <mxPoint as="offset" />
            <mxPoint x="592" y="520" as="targetPoint" />
          </mxGeometry>
        </mxCell>
        <mxCell id="61_WRDxVaNvenf14IvHh-135" value="&lt;font face=&quot;calibri&quot; style=&quot;font-size: 11.29px;&quot;&gt;Dir== OUT&lt;/font&gt;" style="rhombus;whiteSpace=wrap;html=1;shadow=0;fontFamily=Helvetica;fontSize=12;align=center;strokeWidth=1;spacing=6;spacingTop=-4;fillColor=#fff2cc;strokeColor=#d6b656;" vertex="1" parent="WIyWlLk6GJQsqaUBKTNV-1">
          <mxGeometry x="443" y="480" width="100" height="80" as="geometry" />
        </mxCell>
        <mxCell id="61_WRDxVaNvenf14IvHh-136" value="" style="endArrow=classic;html=1;rounded=0;entryX=0;entryY=0.5;entryDx=0;entryDy=0;exitX=1;exitY=0.5;exitDx=0;exitDy=0;" edge="1" parent="WIyWlLk6GJQsqaUBKTNV-1" source="61_WRDxVaNvenf14IvHh-129" target="61_WRDxVaNvenf14IvHh-135">
          <mxGeometry width="50" height="50" relative="1" as="geometry">
            <mxPoint x="346" y="560" as="sourcePoint" />
            <mxPoint x="396" y="510" as="targetPoint" />
          </mxGeometry>
        </mxCell>
        <mxCell id="61_WRDxVaNvenf14IvHh-138" value="&lt;font style=&quot;font-size: 11.29px;&quot;&gt;No&lt;/font&gt;" style="text;html=1;align=center;verticalAlign=middle;resizable=0;points=[];autosize=1;strokeColor=none;fillColor=none;" vertex="1" parent="WIyWlLk6GJQsqaUBKTNV-1">
          <mxGeometry x="294" y="550" width="40" height="30" as="geometry" />
        </mxCell>
        <mxCell id="61_WRDxVaNvenf14IvHh-143" value="" style="edgeStyle=orthogonalEdgeStyle;rounded=0;orthogonalLoop=1;jettySize=auto;html=1;" edge="1" parent="WIyWlLk6GJQsqaUBKTNV-1" source="61_WRDxVaNvenf14IvHh-140" target="61_WRDxVaNvenf14IvHh-142">
          <mxGeometry relative="1" as="geometry" />
        </mxCell>
        <mxCell id="61_WRDxVaNvenf14IvHh-140" value="&lt;div style=&quot;&quot;&gt;&lt;font style=&quot;font-size: 11.29px;&quot; face=&quot;calibri&quot;&gt;Clear GPIOAFSEL(port) Bit&lt;/font&gt;&lt;/div&gt;" style="rounded=0;whiteSpace=wrap;html=1;fillColor=#d5e8d4;strokeColor=#82b366;" vertex="1" parent="WIyWlLk6GJQsqaUBKTNV-1">
          <mxGeometry x="592" y="580" width="120" height="60" as="geometry" />
        </mxCell>
        <mxCell id="61_WRDxVaNvenf14IvHh-145" style="edgeStyle=orthogonalEdgeStyle;rounded=0;orthogonalLoop=1;jettySize=auto;html=1;entryX=1;entryY=0.5;entryDx=0;entryDy=0;" edge="1" parent="WIyWlLk6GJQsqaUBKTNV-1" source="61_WRDxVaNvenf14IvHh-142" target="61_WRDxVaNvenf14IvHh-144">
          <mxGeometry relative="1" as="geometry" />
        </mxCell>
        <mxCell id="61_WRDxVaNvenf14IvHh-150" style="edgeStyle=orthogonalEdgeStyle;rounded=0;orthogonalLoop=1;jettySize=auto;html=1;exitX=0.5;exitY=1;exitDx=0;exitDy=0;entryX=1;entryY=0.5;entryDx=0;entryDy=0;" edge="1" parent="WIyWlLk6GJQsqaUBKTNV-1" source="61_WRDxVaNvenf14IvHh-142" target="61_WRDxVaNvenf14IvHh-147">
          <mxGeometry relative="1" as="geometry">
            <mxPoint x="240" y="690" as="targetPoint" />
            <Array as="points">
              <mxPoint x="493" y="660" />
              <mxPoint x="240" y="660" />
            </Array>
          </mxGeometry>
        </mxCell>
        <mxCell id="61_WRDxVaNvenf14IvHh-142" value="&lt;font face=&quot;calibri&quot; style=&quot;font-size: 11.29px;&quot;&gt;Amp== R2&lt;/font&gt;" style="rhombus;whiteSpace=wrap;html=1;shadow=0;fontFamily=Helvetica;fontSize=12;align=center;strokeWidth=1;spacing=6;spacingTop=-4;fillColor=#fff2cc;strokeColor=#d6b656;" vertex="1" parent="WIyWlLk6GJQsqaUBKTNV-1">
          <mxGeometry x="443" y="570" width="100" height="80" as="geometry" />
        </mxCell>
        <mxCell id="61_WRDxVaNvenf14IvHh-148" style="edgeStyle=orthogonalEdgeStyle;rounded=0;orthogonalLoop=1;jettySize=auto;html=1;entryX=1;entryY=0.5;entryDx=0;entryDy=0;" edge="1" parent="WIyWlLk6GJQsqaUBKTNV-1" source="61_WRDxVaNvenf14IvHh-144" target="61_WRDxVaNvenf14IvHh-147">
          <mxGeometry relative="1" as="geometry" />
        </mxCell>
        <mxCell id="61_WRDxVaNvenf14IvHh-144" value="&lt;div style=&quot;&quot;&gt;&lt;font style=&quot;font-size: 11.29px;&quot; face=&quot;calibri&quot;&gt;Set GPIODR2R(port) bit&lt;/font&gt;&lt;br&gt;&lt;/div&gt;" style="rounded=0;whiteSpace=wrap;html=1;fillColor=#d5e8d4;strokeColor=#82b366;" vertex="1" parent="WIyWlLk6GJQsqaUBKTNV-1">
          <mxGeometry x="286" y="590" width="120" height="60" as="geometry" />
        </mxCell>
        <mxCell id="61_WRDxVaNvenf14IvHh-146" value="&lt;font style=&quot;font-size: 11.29px;&quot;&gt;Yes&lt;/font&gt;" style="text;html=1;align=center;verticalAlign=middle;resizable=0;points=[];autosize=1;strokeColor=none;fillColor=none;" vertex="1" parent="WIyWlLk6GJQsqaUBKTNV-1">
          <mxGeometry x="403" y="580" width="40" height="30" as="geometry" />
        </mxCell>
        <mxCell id="61_WRDxVaNvenf14IvHh-154" style="edgeStyle=orthogonalEdgeStyle;rounded=0;orthogonalLoop=1;jettySize=auto;html=1;exitX=0;exitY=0.5;exitDx=0;exitDy=0;entryX=0;entryY=0.5;entryDx=0;entryDy=0;" edge="1" parent="WIyWlLk6GJQsqaUBKTNV-1" source="61_WRDxVaNvenf14IvHh-147" target="61_WRDxVaNvenf14IvHh-152">
          <mxGeometry relative="1" as="geometry" />
        </mxCell>
        <mxCell id="61_WRDxVaNvenf14IvHh-157" style="edgeStyle=orthogonalEdgeStyle;rounded=0;orthogonalLoop=1;jettySize=auto;html=1;" edge="1" parent="WIyWlLk6GJQsqaUBKTNV-1" source="61_WRDxVaNvenf14IvHh-147" target="61_WRDxVaNvenf14IvHh-155">
          <mxGeometry relative="1" as="geometry">
            <Array as="points">
              <mxPoint x="190" y="680" />
              <mxPoint x="336" y="680" />
            </Array>
          </mxGeometry>
        </mxCell>
        <mxCell id="61_WRDxVaNvenf14IvHh-147" value="&lt;font face=&quot;calibri&quot; style=&quot;font-size: 11.29px;&quot;&gt;Amp== R4&lt;/font&gt;" style="rhombus;whiteSpace=wrap;html=1;shadow=0;fontFamily=Helvetica;fontSize=12;align=center;strokeWidth=1;spacing=6;spacingTop=-4;fillColor=#fff2cc;strokeColor=#d6b656;" vertex="1" parent="WIyWlLk6GJQsqaUBKTNV-1">
          <mxGeometry x="140" y="590" width="100" height="80" as="geometry" />
        </mxCell>
        <mxCell id="61_WRDxVaNvenf14IvHh-151" value="&lt;font style=&quot;font-size: 11.29px;&quot;&gt;No&lt;/font&gt;" style="text;html=1;align=center;verticalAlign=middle;resizable=0;points=[];autosize=1;strokeColor=none;fillColor=none;" vertex="1" parent="WIyWlLk6GJQsqaUBKTNV-1">
          <mxGeometry x="438" y="630" width="40" height="30" as="geometry" />
        </mxCell>
        <mxCell id="61_WRDxVaNvenf14IvHh-156" value="" style="edgeStyle=orthogonalEdgeStyle;rounded=0;orthogonalLoop=1;jettySize=auto;html=1;" edge="1" parent="WIyWlLk6GJQsqaUBKTNV-1" source="61_WRDxVaNvenf14IvHh-152" target="61_WRDxVaNvenf14IvHh-155">
          <mxGeometry relative="1" as="geometry" />
        </mxCell>
        <mxCell id="61_WRDxVaNvenf14IvHh-152" value="&lt;div style=&quot;&quot;&gt;&lt;font style=&quot;font-size: 11.29px;&quot; face=&quot;calibri&quot;&gt;Set GPIODR4R(port) bit&lt;/font&gt;&lt;br&gt;&lt;/div&gt;" style="rounded=0;whiteSpace=wrap;html=1;fillColor=#d5e8d4;strokeColor=#82b366;" vertex="1" parent="WIyWlLk6GJQsqaUBKTNV-1">
          <mxGeometry x="130" y="710" width="120" height="40" as="geometry" />
        </mxCell>
        <mxCell id="61_WRDxVaNvenf14IvHh-161" value="" style="edgeStyle=orthogonalEdgeStyle;rounded=0;orthogonalLoop=1;jettySize=auto;html=1;" edge="1" parent="WIyWlLk6GJQsqaUBKTNV-1" source="61_WRDxVaNvenf14IvHh-155" target="61_WRDxVaNvenf14IvHh-160">
          <mxGeometry relative="1" as="geometry" />
        </mxCell>
        <mxCell id="61_WRDxVaNvenf14IvHh-173" style="edgeStyle=orthogonalEdgeStyle;rounded=0;orthogonalLoop=1;jettySize=auto;html=1;exitX=0.5;exitY=1;exitDx=0;exitDy=0;entryX=0.5;entryY=0;entryDx=0;entryDy=0;" edge="1" parent="WIyWlLk6GJQsqaUBKTNV-1" source="61_WRDxVaNvenf14IvHh-155" target="61_WRDxVaNvenf14IvHh-166">
          <mxGeometry relative="1" as="geometry">
            <Array as="points">
              <mxPoint x="336" y="780" />
              <mxPoint x="248" y="780" />
              <mxPoint x="248" y="760" />
              <mxPoint x="160" y="760" />
            </Array>
          </mxGeometry>
        </mxCell>
        <mxCell id="61_WRDxVaNvenf14IvHh-155" value="&lt;font face=&quot;calibri&quot; style=&quot;font-size: 11.29px;&quot;&gt;Amp== R4&lt;/font&gt;" style="rhombus;whiteSpace=wrap;html=1;shadow=0;fontFamily=Helvetica;fontSize=12;align=center;strokeWidth=1;spacing=6;spacingTop=-4;fillColor=#fff2cc;strokeColor=#d6b656;" vertex="1" parent="WIyWlLk6GJQsqaUBKTNV-1">
          <mxGeometry x="286" y="690" width="100" height="80" as="geometry" />
        </mxCell>
        <mxCell id="61_WRDxVaNvenf14IvHh-158" value="&lt;font style=&quot;font-size: 11.29px;&quot;&gt;No&lt;/font&gt;" style="text;html=1;align=center;verticalAlign=middle;resizable=0;points=[];autosize=1;strokeColor=none;fillColor=none;" vertex="1" parent="WIyWlLk6GJQsqaUBKTNV-1">
          <mxGeometry x="192" y="650" width="40" height="30" as="geometry" />
        </mxCell>
        <mxCell id="61_WRDxVaNvenf14IvHh-159" value="&lt;font style=&quot;font-size: 11.29px;&quot;&gt;Yes&lt;/font&gt;" style="text;html=1;align=center;verticalAlign=middle;resizable=0;points=[];autosize=1;strokeColor=none;fillColor=none;" vertex="1" parent="WIyWlLk6GJQsqaUBKTNV-1">
          <mxGeometry x="100" y="605" width="40" height="30" as="geometry" />
        </mxCell>
        <mxCell id="61_WRDxVaNvenf14IvHh-175" style="edgeStyle=orthogonalEdgeStyle;rounded=0;orthogonalLoop=1;jettySize=auto;html=1;exitX=0.5;exitY=1;exitDx=0;exitDy=0;entryX=0.5;entryY=1;entryDx=0;entryDy=0;" edge="1" parent="WIyWlLk6GJQsqaUBKTNV-1" source="61_WRDxVaNvenf14IvHh-160" target="61_WRDxVaNvenf14IvHh-155">
          <mxGeometry relative="1" as="geometry">
            <mxPoint x="339.9999999999998" y="780" as="targetPoint" />
            <Array as="points">
              <mxPoint x="483" y="770" />
            </Array>
          </mxGeometry>
        </mxCell>
        <mxCell id="61_WRDxVaNvenf14IvHh-160" value="&lt;div style=&quot;&quot;&gt;&lt;font style=&quot;font-size: 11.29px;&quot; face=&quot;calibri&quot;&gt;Set GPIODR8R(port) bit&lt;/font&gt;&lt;br&gt;&lt;/div&gt;" style="rounded=0;whiteSpace=wrap;html=1;fillColor=#d5e8d4;strokeColor=#82b366;" vertex="1" parent="WIyWlLk6GJQsqaUBKTNV-1">
          <mxGeometry x="423" y="710" width="120" height="40" as="geometry" />
        </mxCell>
        <mxCell id="61_WRDxVaNvenf14IvHh-162" value="&lt;font style=&quot;font-size: 11.29px;&quot;&gt;Yes&lt;/font&gt;" style="text;html=1;align=center;verticalAlign=middle;resizable=0;points=[];autosize=1;strokeColor=none;fillColor=none;" vertex="1" parent="WIyWlLk6GJQsqaUBKTNV-1">
          <mxGeometry x="383" y="700" width="40" height="30" as="geometry" />
        </mxCell>
        <mxCell id="61_WRDxVaNvenf14IvHh-163" value="&lt;div style=&quot;&quot;&gt;&lt;font style=&quot;font-size: 11.29px;&quot; face=&quot;calibri&quot;&gt;Set GPIOPUR(port) Bit&lt;/font&gt;&lt;/div&gt;" style="rounded=0;whiteSpace=wrap;html=1;fillColor=#d5e8d4;strokeColor=#82b366;" vertex="1" parent="WIyWlLk6GJQsqaUBKTNV-1">
          <mxGeometry x="256" y="790" width="120" height="60" as="geometry" />
        </mxCell>
        <mxCell id="61_WRDxVaNvenf14IvHh-164" value="" style="endArrow=classic;html=1;rounded=0;exitX=0.5;exitY=1;exitDx=0;exitDy=0;" edge="1" parent="WIyWlLk6GJQsqaUBKTNV-1" source="61_WRDxVaNvenf14IvHh-166">
          <mxGeometry width="50" height="50" relative="1" as="geometry">
            <mxPoint x="156" y="870" as="sourcePoint" />
            <mxPoint x="416" y="820" as="targetPoint" />
            <Array as="points">
              <mxPoint x="160" y="880" />
              <mxPoint x="236" y="880" />
              <mxPoint x="340" y="880" />
              <mxPoint x="416" y="880" />
            </Array>
          </mxGeometry>
        </mxCell>
        <mxCell id="61_WRDxVaNvenf14IvHh-165" value="Yes" style="rounded=0;html=1;jettySize=auto;orthogonalLoop=1;fontSize=11;endArrow=block;endFill=0;endSize=8;strokeWidth=1;shadow=0;labelBackgroundColor=none;edgeStyle=orthogonalEdgeStyle;exitX=1;exitY=0.5;exitDx=0;exitDy=0;" edge="1" parent="WIyWlLk6GJQsqaUBKTNV-1" source="61_WRDxVaNvenf14IvHh-166">
          <mxGeometry x="-0.2174" y="10" relative="1" as="geometry">
            <mxPoint as="offset" />
            <mxPoint x="256" y="820" as="targetPoint" />
          </mxGeometry>
        </mxCell>
        <mxCell id="61_WRDxVaNvenf14IvHh-166" value="&lt;font face=&quot;calibri&quot; style=&quot;font-size: 11.29px;&quot;&gt;PullUp== EN&lt;/font&gt;" style="rhombus;whiteSpace=wrap;html=1;shadow=0;fontFamily=Helvetica;fontSize=12;align=center;strokeWidth=1;spacing=6;spacingTop=-4;fillColor=#fff2cc;strokeColor=#d6b656;" vertex="1" parent="WIyWlLk6GJQsqaUBKTNV-1">
          <mxGeometry x="110" y="780" width="100" height="80" as="geometry" />
        </mxCell>
        <mxCell id="61_WRDxVaNvenf14IvHh-167" value="" style="edgeStyle=orthogonalEdgeStyle;rounded=0;orthogonalLoop=1;jettySize=auto;html=1;entryX=0.5;entryY=0;entryDx=0;entryDy=0;" edge="1" parent="WIyWlLk6GJQsqaUBKTNV-1" source="61_WRDxVaNvenf14IvHh-168" target="61_WRDxVaNvenf14IvHh-176">
          <mxGeometry relative="1" as="geometry">
            <mxPoint x="622" y="880" as="targetPoint" />
          </mxGeometry>
        </mxCell>
        <mxCell id="61_WRDxVaNvenf14IvHh-168" value="&lt;div style=&quot;&quot;&gt;&lt;font style=&quot;font-size: 11.29px;&quot; face=&quot;calibri&quot;&gt;Clear GPIOPUR(port) bit&lt;/font&gt;&lt;br&gt;&lt;/div&gt;" style="rounded=0;whiteSpace=wrap;html=1;fillColor=#d5e8d4;strokeColor=#82b366;" vertex="1" parent="WIyWlLk6GJQsqaUBKTNV-1">
          <mxGeometry x="562" y="790" width="120" height="60" as="geometry" />
        </mxCell>
        <mxCell id="61_WRDxVaNvenf14IvHh-169" value="Yes" style="rounded=0;html=1;jettySize=auto;orthogonalLoop=1;fontSize=11;endArrow=block;endFill=0;endSize=8;strokeWidth=1;shadow=0;labelBackgroundColor=none;edgeStyle=orthogonalEdgeStyle;exitX=1;exitY=0.5;exitDx=0;exitDy=0;" edge="1" parent="WIyWlLk6GJQsqaUBKTNV-1" source="61_WRDxVaNvenf14IvHh-170">
          <mxGeometry y="20" relative="1" as="geometry">
            <mxPoint as="offset" />
            <mxPoint x="562" y="820" as="targetPoint" />
          </mxGeometry>
        </mxCell>
        <mxCell id="61_WRDxVaNvenf14IvHh-170" value="&lt;font face=&quot;calibri&quot; style=&quot;font-size: 11.29px;&quot;&gt;PullUp== DIS&lt;/font&gt;" style="rhombus;whiteSpace=wrap;html=1;shadow=0;fontFamily=Helvetica;fontSize=12;align=center;strokeWidth=1;spacing=6;spacingTop=-4;fillColor=#fff2cc;strokeColor=#d6b656;" vertex="1" parent="WIyWlLk6GJQsqaUBKTNV-1">
          <mxGeometry x="413" y="780" width="100" height="80" as="geometry" />
        </mxCell>
        <mxCell id="61_WRDxVaNvenf14IvHh-171" value="" style="endArrow=classic;html=1;rounded=0;entryX=0;entryY=0.5;entryDx=0;entryDy=0;exitX=1;exitY=0.5;exitDx=0;exitDy=0;" edge="1" parent="WIyWlLk6GJQsqaUBKTNV-1" source="61_WRDxVaNvenf14IvHh-163" target="61_WRDxVaNvenf14IvHh-170">
          <mxGeometry width="50" height="50" relative="1" as="geometry">
            <mxPoint x="316" y="860" as="sourcePoint" />
            <mxPoint x="366" y="810" as="targetPoint" />
          </mxGeometry>
        </mxCell>
        <mxCell id="61_WRDxVaNvenf14IvHh-172" value="&lt;font style=&quot;font-size: 11.29px;&quot;&gt;No&lt;/font&gt;" style="text;html=1;align=center;verticalAlign=middle;resizable=0;points=[];autosize=1;strokeColor=none;fillColor=none;" vertex="1" parent="WIyWlLk6GJQsqaUBKTNV-1">
          <mxGeometry x="264" y="850" width="40" height="30" as="geometry" />
        </mxCell>
        <mxCell id="61_WRDxVaNvenf14IvHh-174" value="&lt;font style=&quot;font-size: 11.29px;&quot;&gt;No&lt;/font&gt;" style="text;html=1;align=center;verticalAlign=middle;resizable=0;points=[];autosize=1;strokeColor=none;fillColor=none;" vertex="1" parent="WIyWlLk6GJQsqaUBKTNV-1">
          <mxGeometry x="280" y="750" width="40" height="30" as="geometry" />
        </mxCell>
        <mxCell id="61_WRDxVaNvenf14IvHh-179" style="edgeStyle=orthogonalEdgeStyle;rounded=0;orthogonalLoop=1;jettySize=auto;html=1;entryX=1;entryY=0.5;entryDx=0;entryDy=0;" edge="1" parent="WIyWlLk6GJQsqaUBKTNV-1" source="61_WRDxVaNvenf14IvHh-176" target="61_WRDxVaNvenf14IvHh-178">
          <mxGeometry relative="1" as="geometry" />
        </mxCell>
        <mxCell id="61_WRDxVaNvenf14IvHh-176" value="&lt;div style=&quot;&quot;&gt;&lt;font style=&quot;font-size: 11.29px;&quot; face=&quot;calibri&quot;&gt;Clear GPIOAMSEL(port) Bit&lt;/font&gt;&lt;/div&gt;" style="rounded=0;whiteSpace=wrap;html=1;fillColor=#d5e8d4;strokeColor=#82b366;" vertex="1" parent="WIyWlLk6GJQsqaUBKTNV-1">
          <mxGeometry x="542" y="880" width="160" height="40" as="geometry" />
        </mxCell>
        <mxCell id="61_WRDxVaNvenf14IvHh-181" value="" style="edgeStyle=orthogonalEdgeStyle;rounded=0;orthogonalLoop=1;jettySize=auto;html=1;" edge="1" parent="WIyWlLk6GJQsqaUBKTNV-1" source="61_WRDxVaNvenf14IvHh-178" target="61_WRDxVaNvenf14IvHh-180">
          <mxGeometry relative="1" as="geometry" />
        </mxCell>
        <mxCell id="61_WRDxVaNvenf14IvHh-178" value="&lt;div style=&quot;&quot;&gt;&lt;font style=&quot;font-size: 11.29px;&quot; face=&quot;calibri&quot;&gt;Set GPIODEN(port) Bit&lt;/font&gt;&lt;/div&gt;" style="rounded=0;whiteSpace=wrap;html=1;fillColor=#d5e8d4;strokeColor=#82b366;" vertex="1" parent="WIyWlLk6GJQsqaUBKTNV-1">
          <mxGeometry x="350" y="930" width="120" height="60" as="geometry" />
        </mxCell>
        <mxCell id="61_WRDxVaNvenf14IvHh-180" value="&lt;font style=&quot;font-size: 11.29px;&quot; face=&quot;calibri&quot;&gt;end&lt;/font&gt;" style="ellipse;whiteSpace=wrap;html=1;fillColor=#dae8fc;strokeColor=#6c8ebf;" vertex="1" parent="WIyWlLk6GJQsqaUBKTNV-1">
          <mxGeometry x="130" y="935" width="120" height="50" as="geometry" />
        </mxCell>
      </root>
    </mxGraphModel>
  </diagram>
</mxfile>
